<?xml version="1.0" encoding="UTF-8" standalone="no"?><!-- Generator: Gravit.io --><svg xmlns="http://www.w3.org/2000/svg" xmlns:xlink="http://www.w3.org/1999/xlink" style="isolation:isolate" viewBox="555 277 558 693.26" width="558pt" height="693.26pt"><g><g><g><g><g><g><path d=" M 617.496 291.509 L 1050.504 291.509 C 1077.245 291.509 1099.136 314.439 1099.136 342.467 L 1099.136 795.944 C 1099.136 823.972 1077.245 846.902 1050.504 846.902 L 919.31 846.902 L 876.666 926.196 L 834 962.872 L 791.334 926.196 L 748.69 846.902 L 617.496 846.902 C 590.755 846.902 568.864 823.972 568.864 795.944 L 568.864 342.467 C 568.864 314.439 590.755 291.509 617.496 291.509 L 617.496 291.509 Z " fill-rule="evenodd" fill="rgb(255,255,255)"/><path d=" M 1050.504 277 L 617.496 277 C 583.029 277 555 306.369 555 342.467 L 555 795.944 C 555 832.042 583.05 861.411 617.496 861.411 L 740.578 861.411 L 821.917 962.872 C 824.385 967.433 828.999 970.26 834 970.26 C 839.001 970.26 843.615 967.433 846.083 962.872 L 927.422 861.411 L 1050.504 861.411 C 1084.95 861.411 1113 832.042 1113 795.944 L 1113 342.467 C 1113 306.369 1084.95 277 1050.504 277 L 1050.504 277 Z  M 1085.293 795.944 C 1085.293 816.047 1069.669 832.393 1050.504 832.393 L 919.31 832.393 C 914.309 832.393 909.695 835.199 907.248 839.781 L 834 926.196 L 760.752 839.781 C 758.305 835.199 753.691 832.393 748.69 832.393 L 617.496 832.393 C 598.331 832.393 582.707 816.047 582.707 795.944 L 582.707 342.467 C 582.707 322.364 598.331 306.018 617.496 306.018 L 1050.504 306.018 C 1069.669 306.018 1085.293 322.364 1085.293 342.467 L 1085.293 795.944 Z " fill-rule="evenodd" fill="rgb(134,132,145)"/></g></g></g></g></g><g><g><g><path d=" M 1006.8 338 L 661.2 338 C 637.381 338 618 355.945 618 378 L 618 770 C 618 792.055 637.381 810 661.2 810 L 1006.8 810 C 1030.619 810 1050 792.055 1050 770 L 1050 378 C 1050 355.945 1030.619 338 1006.8 338 Z " fill="rgb(153,100,89)"/></g><g><path d=" M 1006.368 370 C 1011.378 370 1015.44 373.728 1015.44 378.327 L 1015.44 769.674 C 1015.44 774.273 1011.378 778.001 1006.368 778.001 L 661.632 778.001 C 656.622 778.001 652.56 774.273 652.56 769.674 L 652.56 378.326 C 652.56 373.728 656.622 370 661.632 370 L 1006.368 370 Z " fill="rgb(255,255,255)"/></g><g><g><path d=" M 773.52 514 L 721.68 514 C 712.154 514 704.4 506.82 704.4 498 L 704.4 450 C 704.4 441.18 712.154 434 721.68 434 L 773.52 434 C 783.046 434 790.8 441.18 790.8 450 L 790.8 498 C 790.8 506.82 783.046 514 773.52 514 Z  M 721.68 450 L 721.68 498 L 773.537 498 L 773.52 450 L 721.68 450 Z " fill="rgb(180,182,188)"/></g></g><g><g><path d=" M 842.64 458 L 816.72 458 C 811.944 458 808.08 454.422 808.08 450 C 808.08 445.578 811.944 442 816.72 442 L 842.64 442 C 847.416 442 851.28 445.578 851.28 450 C 851.28 454.422 847.416 458 842.64 458 Z " fill="rgb(92,84,106)"/></g></g><g><g><path d=" M 946.32 490 L 816.72 490 C 811.944 490 808.08 486.422 808.08 482 C 808.08 477.578 811.944 474 816.72 474 L 946.32 474 C 951.096 474 954.96 477.578 954.96 482 C 954.96 486.422 951.096 490 946.32 490 Z " fill="rgb(134,132,145)"/></g></g><g><g><path d=" M 903.12 570 L 816.72 570 C 811.944 570 808.08 566.422 808.08 562 C 808.08 557.578 811.944 554 816.72 554 L 903.12 554 C 907.896 554 911.76 557.578 911.76 562 C 911.76 566.422 907.896 570 903.12 570 Z " fill="rgb(92,84,106)"/></g></g><g><g><path d=" M 946.32 602 L 816.72 602 C 811.944 602 808.08 598.422 808.08 594 C 808.08 589.578 811.944 586 816.72 586 L 946.32 586 C 951.096 586 954.96 589.578 954.96 594 C 954.96 598.422 951.096 602 946.32 602 Z " fill="rgb(134,132,145)"/></g></g><g><g><path d=" M 851.28 674 L 816.72 674 C 811.944 674 808.08 670.422 808.08 666 C 808.08 661.578 811.944 658 816.72 658 L 851.28 658 C 856.056 658 859.92 661.578 859.92 666 C 859.92 670.422 856.056 674 851.28 674 Z " fill="rgb(92,84,106)"/></g></g><g><g><path d=" M 946.32 706 L 816.72 706 C 811.944 706 808.08 702.422 808.08 698 C 808.08 693.578 811.944 690 816.72 690 L 946.32 690 C 951.096 690 954.96 693.578 954.96 698 C 954.96 702.422 951.096 706 946.32 706 Z " fill="rgb(134,132,145)"/></g></g><g><path d=" M 929.04 322 L 738.96 322 C 734.189 322 730.32 325.582 730.32 330 L 730.32 354 C 730.32 376.091 749.662 394 773.52 394 L 894.48 394 C 918.338 394 937.68 376.091 937.68 354 L 937.68 330 C 937.68 325.582 933.811 322 929.04 322 Z " fill="rgb(180,182,188)"/></g><g><g><path d=" M 773.52 618 L 721.68 618 C 712.154 618 704.4 610.82 704.4 602 L 704.4 554 C 704.4 545.18 712.154 538 721.68 538 L 773.52 538 C 783.046 538 790.8 545.18 790.8 554 L 790.8 602 C 790.8 610.82 783.046 618 773.52 618 Z  M 721.68 554 L 721.68 602 L 773.537 602 L 773.52 554 L 721.68 554 Z " fill="rgb(180,182,188)"/></g></g><g><g><path d=" M 773.52 722 L 721.68 722 C 712.154 722 704.4 714.82 704.4 706 L 704.4 658 C 704.4 649.18 712.154 642 721.68 642 L 773.52 642 C 783.046 642 790.8 649.18 790.8 658 L 790.8 706 C 790.8 714.82 783.046 722 773.52 722 Z  M 721.68 658 L 721.68 706 L 773.537 706 L 773.52 658 L 721.68 658 Z " fill="rgb(180,182,188)"/></g></g><g><g><path d=" M 756.24 594 C 754.029 594 751.818 593.219 750.132 591.656 L 732.852 575.656 C 729.477 572.531 729.477 567.468 732.852 564.343 C 736.227 561.218 741.695 561.218 745.07 564.343 L 756.24 574.687 L 793.332 540.343 C 796.707 537.218 802.175 537.218 805.55 540.343 C 808.925 543.468 808.925 548.53 805.55 551.655 L 762.35 591.655 C 760.662 593.219 758.451 594 756.24 594 Z " fill="rgb(92,84,106)"/></g></g><g><g><path d=" M 756.24 698.001 C 754.029 698.001 751.818 697.22 750.132 695.657 L 732.852 679.657 C 729.477 676.532 729.477 671.469 732.852 668.344 C 736.227 665.219 741.695 665.219 745.07 668.344 L 756.24 678.688 L 793.332 644.344 C 796.707 641.219 802.175 641.219 805.55 644.344 C 808.925 647.469 808.925 652.531 805.55 655.656 L 762.35 695.656 C 760.662 697.22 758.451 698.001 756.24 698.001 Z " fill="rgb(92,84,106)"/></g></g><g><g><path d=" M 756.239 490 C 754.028 490 751.818 489.219 750.131 487.656 L 732.851 471.656 C 729.476 468.531 729.476 463.468 732.851 460.343 C 736.226 457.218 741.694 457.218 745.069 460.343 L 756.239 470.687 L 793.331 436.343 C 796.706 433.218 802.174 433.218 805.549 436.343 C 808.924 439.468 808.924 444.53 805.549 447.655 L 762.349 487.655 C 760.661 489.219 758.45 490 756.239 490 Z " fill="rgb(92,84,106)"/></g></g></g></g></g></svg>